<svg width="25" height="19" viewBox="0 0 25 19" fill="none" xmlns="http://www.w3.org/2000/svg">
<path d="M24.5264 6.19487C24.7168 6.04342 25 6.1851 25 6.42449V16.4154C25 17.7101 23.9502 18.7605 22.6562 18.7605H2.34375C1.0498 18.7605 0 17.7101 0 16.4154V6.42937C0 6.1851 0.27832 6.0483 0.473633 6.19975C1.56738 7.04984 3.01758 8.12954 7.99805 11.7497C9.02832 12.5021 10.7666 14.085 12.5 14.0752C14.2432 14.0899 16.0156 12.4728 17.0068 11.7497C21.9873 8.12954 23.4326 7.04495 24.5264 6.19487ZM12.5 12.507C13.6328 12.5265 15.2637 11.0804 16.084 10.4844C22.5635 5.7796 23.0566 5.36921 24.5508 4.19668C24.834 3.97683 25 3.63484 25 3.27331V2.34506C25 1.05039 23.9502 0 22.6562 0H2.34375C1.0498 0 0 1.05039 0 2.34506V3.27331C0 3.63484 0.166016 3.97195 0.449219 4.19668C1.94336 5.36433 2.43652 5.7796 8.91602 10.4844C9.73633 11.0804 11.3672 12.5265 12.5 12.507Z" fill="#855AFE"/>
</svg>
