<svg width="1255" height="556" viewBox="0 0 1255 556" fill="none" xmlns="http://www.w3.org/2000/svg">
<path d="M472.722 112.401C471.688 111.792 470.357 112.136 469.748 113.171C469.14 114.203 469.485 115.534 470.518 116.144C471.552 116.751 472.882 116.406 473.492 115.373C474.099 114.339 473.755 113.009 472.722 112.401Z" fill="#E5E5E5"/>
<path d="M492.549 78.7172C487.378 75.6734 480.728 77.3949 477.684 82.5662C474.648 87.7239 476.374 94.392 481.533 97.4312C486.692 100.466 493.361 98.741 496.398 93.582C499.441 88.4113 497.72 81.7613 492.549 78.7172ZM492.655 91.3786C490.833 94.4734 486.832 95.5094 483.737 93.6883C480.641 91.865 479.605 87.8638 481.427 84.7692C483.253 81.6668 487.243 80.6332 490.346 82.4598C493.448 84.2859 494.482 88.2759 492.655 91.3786Z" fill="#E5E5E5"/>
<path d="M510.174 48.775C509.654 48.4693 509.033 48.3915 508.453 48.5652C507.982 48.7053 496.783 52.0905 484.561 60.3287C474.767 66.9261 467.192 74.702 462.049 83.4406C460.896 85.3987 459.809 87.44 458.805 89.5284C450.896 87.2655 445.724 89.9563 442.729 92.7172C435.833 99.0742 433.89 111.99 436.045 120.31C436.265 121.16 436.976 121.794 437.846 121.916C438.134 121.956 438.421 121.938 438.691 121.868C439.238 121.726 439.721 121.373 440.019 120.867C443.147 115.552 448.423 114.468 450.182 114.251L451.109 114.797C450.553 118.619 450.273 122.35 450.28 125.906C450.284 127.192 450.719 128.442 451.48 129.491C449.698 130.948 448.1 132.823 446.84 134.964C442.83 141.776 445.146 155.248 445.246 155.818C445.357 156.444 445.736 156.99 446.283 157.313C446.781 157.606 447.374 157.687 447.929 157.543C447.984 157.529 448.039 157.513 448.093 157.494C448.64 157.305 461.544 152.792 465.554 145.98C466.813 143.84 467.677 141.533 468.086 139.268C469.448 139.434 470.736 139.164 471.805 138.575C474.916 136.856 478.042 134.802 481.114 132.46L482.041 133.006C482.705 134.649 484.318 139.788 481.189 145.102C480.744 145.859 480.798 146.81 481.327 147.511C481.855 148.212 482.754 148.526 483.605 148.306C491.925 146.151 502.274 138.184 504.486 129.07C505.446 125.112 505.289 119.284 499.472 113.467C500.81 111.576 502.067 109.635 503.22 107.676C508.364 98.9377 511.487 88.5415 512.502 76.7769C513.774 62.0923 511.298 50.6574 511.192 50.1779C511.062 49.5891 510.693 49.0811 510.174 48.775ZM439.574 114.571C439.243 107.914 441.241 99.9967 445.674 95.91C448.636 93.1794 452.442 92.3865 457.005 93.5393C454.759 98.899 453.048 104.49 451.9 110.223C451.864 110.212 451.362 109.834 450.618 109.858C450.312 109.867 444.441 110.111 439.574 114.571ZM461.811 143.776C459.669 147.415 453.283 150.695 449.159 152.427C448.672 147.98 448.441 140.805 450.583 137.167C451.782 135.129 453.341 133.416 455.049 132.236L463.955 137.479C463.752 139.544 463.011 141.738 461.811 143.776ZM469.706 134.772C469.138 135.086 468.374 135.039 467.715 134.652C464.291 132.637 462.952 131.848 462.531 131.601C461.761 131.147 459.871 130.035 455.697 127.578C455.036 127.188 454.625 126.543 454.623 125.895C454.618 123.099 454.802 120.18 455.169 117.187L477.054 130.069C474.615 131.844 472.153 133.421 469.706 134.772ZM500.266 128.046C498.844 133.905 492.891 139.494 486.91 142.435C487.943 138.122 487.138 133.18 485.643 130.444C485.297 129.809 484.764 129.582 484.729 129.548C489.185 125.761 493.242 121.552 496.839 116.988C500.062 120.418 501.215 124.131 500.266 128.046ZM499.478 105.473C498.074 107.858 496.508 110.216 494.824 112.482C490.774 117.927 486.045 122.875 480.756 127.209L455.874 112.563C457.096 105.834 459.128 99.2983 461.923 93.1151C463.087 90.5406 464.389 88.0269 465.792 85.6435C470.407 77.8031 477.161 70.7655 485.868 64.7042L508.043 77.7577C506.969 88.3116 504.094 97.6323 499.478 105.473ZM508.408 72.9324L489.91 62.0437C497.271 57.4845 503.994 54.7502 507.384 53.5154C507.949 57.0789 508.821 64.2843 508.408 72.9324Z" fill="#E5E5E5"/>
<path d="M476.012 149.614C474.978 149.006 473.647 149.351 473.039 150.384L468.634 157.871C468.026 158.904 468.371 160.235 469.404 160.843C470.438 161.451 471.769 161.107 472.377 160.073L476.782 152.587C477.39 151.553 477.045 150.222 476.012 149.614Z" fill="#E5E5E5"/>
<path d="M438.586 127.583C437.553 126.975 436.222 127.319 435.613 128.353L431.206 135.838C430.597 136.871 430.942 138.202 431.975 138.811C433.008 139.419 434.339 139.075 434.948 138.041L439.356 130.556C439.964 129.523 439.62 128.192 438.586 127.583Z" fill="#E5E5E5"/>
<path d="M461.918 156.438C460.885 155.829 459.554 156.174 458.945 157.207L448.392 175.132C447.783 176.166 448.128 177.497 449.162 178.105C450.195 178.714 451.526 178.369 452.134 177.336L462.688 159.41C463.296 158.377 462.952 157.046 461.918 156.438Z" fill="#E5E5E5"/>
<path d="M445.101 160.792C444.068 160.184 442.737 160.528 442.128 161.562L431.575 179.487C430.966 180.52 431.311 181.851 432.344 182.46C433.377 183.068 434.709 182.724 435.317 181.69L445.871 163.765C446.479 162.731 446.135 161.4 445.101 160.792Z" fill="#E5E5E5"/>
<path d="M439.46 143.217C438.427 142.609 437.096 142.954 436.487 143.987L425.937 161.914C425.328 162.948 425.673 164.278 426.707 164.887C427.74 165.495 429.071 165.151 429.679 164.117L440.23 146.19C440.838 145.157 440.494 143.826 439.46 143.217Z" fill="#E5E5E5"/>
<path d="M479.33 101.172C478.297 100.564 476.966 100.908 476.357 101.942L474.155 105.684C473.546 106.718 473.891 108.049 474.924 108.657C475.958 109.265 477.289 108.921 477.897 107.887L480.1 104.145C480.709 103.112 480.364 101.781 479.33 101.172Z" fill="#E5E5E5"/>
<path d="M165.056 321.444C175.566 321.444 183.49 318.632 187.235 312.153C193.63 301.067 184.235 282.744 161.46 261.874C160.139 260.662 158.085 260.753 156.879 262.075C155.668 263.397 155.759 265.444 157.08 266.656C176.524 284.467 186.159 301.054 181.624 308.907C174.503 321.237 130.852 314.356 79.5953 284.765C28.3382 255.168 0.555313 220.809 7.67598 208.479C12.2049 200.632 31.3834 200.678 56.5163 208.589C58.2074 209.127 60.0346 208.181 60.5788 206.477C61.1166 204.766 60.1706 202.952 58.4601 202.414C29.0056 193.136 8.45349 194.173 2.06497 205.246C-9.81143 225.824 31.4742 264.472 76.3557 290.383C107.106 308.136 142.191 321.444 165.056 321.444Z" fill="#E5E5E5"/>
<path d="M142.081 283.89C149.04 283.89 153.802 281.882 156.089 277.923C156.983 276.374 156.452 274.392 154.903 273.498C153.361 272.584 151.372 273.128 150.478 274.683C149.117 277.035 143.526 278.662 131.954 276.167C120.648 273.731 106.951 268.068 93.3701 260.228C62.9501 242.663 48.9421 223.796 52.2918 217.99C53.186 216.442 52.6547 214.459 51.1061 213.565C49.5641 212.658 47.5814 213.196 46.6808 214.751C39.3723 227.417 63.611 250.522 90.137 265.833C104.281 274.003 118.652 279.925 130.593 282.497C134.902 283.43 138.744 283.89 142.081 283.89Z" fill="#E5E5E5"/>
<path d="M153.879 279.893C155 279.893 156.089 279.31 156.691 278.273C174.198 247.944 163.773 209.023 133.444 191.51C103.115 173.977 64.1876 184.415 46.6743 214.751C45.7802 216.299 46.3115 218.282 47.86 219.176C49.4085 220.076 51.3912 219.539 52.2853 217.99C68.0104 190.758 102.966 181.396 130.204 197.114C157.437 212.846 166.799 247.795 151.08 275.027C150.186 276.575 150.718 278.558 152.266 279.452C152.778 279.75 153.329 279.893 153.879 279.893Z" fill="#E5E5E5"/>
<path d="M96.8623 318.373C106.367 318.373 115.898 316.235 124.723 311.939C126.336 311.161 127.004 309.218 126.22 307.611C125.436 306.004 123.498 305.337 121.892 306.121C104.806 314.427 84.7851 313.734 68.3538 304.248C51.8901 294.743 41.2771 277.742 39.9683 258.764C39.8452 256.982 38.2513 255.641 36.5084 255.751C34.7266 255.881 33.3789 257.423 33.502 259.205C34.9663 280.34 46.7844 299.272 65.1142 309.846C74.9172 315.522 85.8736 318.373 96.8623 318.373Z" fill="#E5E5E5"/>
<path fill-rule="evenodd" clip-rule="evenodd" d="M1184.78 51.54C1183.8 51.4361 1183.09 50.556 1183.19 49.5737C1184.13 40.6803 1179.29 32.2285 1171.13 28.5416C1160.73 23.84 1148.45 28.4744 1143.75 38.8737C1140.11 46.9108 1141.54 53.3404 1142.69 58.5066C1143.52 62.2644 1144.24 65.5105 1142.92 68.4505C1142.83 68.644 1142.74 68.8368 1142.66 69.0291L1149.47 72.1076L1151.16 68.3643C1151.57 67.4643 1152.63 67.0647 1153.53 67.4716C1154.43 67.8785 1154.83 68.9378 1154.42 69.8378L1152.73 73.5811L1159.54 76.6599C1159.63 76.4716 1159.72 76.2812 1159.81 76.0877C1161.14 73.147 1164.05 71.5448 1167.42 69.6893C1170.84 67.8105 1174.71 65.6808 1177.98 61.645C1178.6 60.8773 1179.72 60.7589 1180.49 61.3802C1181.26 62.0008 1181.38 63.1276 1180.76 63.8947C1177.05 68.476 1172.67 70.8865 1169.15 72.8228C1166.22 74.434 1163.9 75.7064 1163.07 77.5612C1162.71 78.3415 1162.34 79.0878 1161.94 79.785L1155.71 93.5679C1155.69 93.6118 1155.67 93.653 1155.65 93.6942C1155.64 93.7038 1155.64 93.7149 1155.63 93.7246C1155.6 93.7824 1155.56 93.8367 1155.52 93.8898L1155.52 93.891C1153.76 96.2894 1151.22 98.048 1148.37 98.842C1145.47 99.6518 1142.37 99.4189 1139.64 98.1868C1136.92 96.9548 1134.7 94.7821 1133.39 92.0679C1132.1 89.4059 1131.74 86.337 1132.38 83.4272C1132.38 83.4266 1132.38 83.4257 1132.38 83.425C1132.39 83.3616 1132.41 83.299 1132.43 83.2357C1132.44 83.2252 1132.44 83.2144 1132.44 83.2039C1132.46 83.1592 1132.48 83.1151 1132.5 83.0712L1138.73 69.2889C1138.99 68.5336 1139.3 67.7571 1139.66 66.9768C1140.49 65.122 1139.92 62.5448 1139.2 59.2816C1138 53.8972 1136.36 46.5232 1140.49 37.4002C1146 25.2041 1160.41 19.7686 1172.61 25.2827C1182.17 29.6065 1187.85 39.5191 1186.75 49.9497C1186.65 50.9317 1185.76 51.6436 1184.78 51.54ZM1141.12 94.9279C1144.43 96.4259 1148.32 95.7731 1151.08 93.4374L1135.65 86.4596C1135.72 90.0756 1137.8 93.4303 1141.12 94.9279ZM1136.49 82.915L1153.19 90.4643L1154.85 86.8006L1138.15 79.2512L1136.49 82.915ZM1139.62 75.9923L1156.32 83.5417L1157.98 79.8779L1141.28 72.3286L1139.62 75.9923Z" fill="#E5E5E5"/>
<path fill-rule="evenodd" clip-rule="evenodd" d="M1173.93 22.3593C1173.03 21.9523 1172.63 20.8931 1173.03 19.9931L1175 15.6514C1175.4 14.7514 1176.46 14.3518 1177.36 14.7587C1178.26 15.1657 1178.66 16.2249 1178.26 17.1249L1176.29 21.4665C1175.89 22.3666 1174.83 22.7662 1173.93 22.3593Z" fill="#E5E5E5"/>
<path fill-rule="evenodd" clip-rule="evenodd" d="M1192.88 63.0521L1188.54 61.089C1187.64 60.6821 1187.24 59.6229 1187.65 58.7228C1188.05 57.8228 1189.11 57.4232 1190.01 57.8301L1194.35 59.7932C1195.25 60.2001 1195.65 61.2593 1195.25 62.1594C1194.84 63.0594 1193.78 63.459 1192.88 63.0521Z" fill="#E5E5E5"/>
<path fill-rule="evenodd" clip-rule="evenodd" d="M1153.66 47.3194C1154.06 46.4194 1155.12 46.0198 1156.02 46.4267L1167.68 51.6997C1168.58 52.1066 1168.98 53.1658 1168.58 54.0659C1168.17 54.9659 1167.11 55.3655 1166.21 54.9586L1162.01 53.0589L1160.32 56.8021C1159.91 57.7022 1158.85 58.1018 1157.95 57.6949C1157.05 57.2879 1156.65 56.2287 1157.06 55.3287L1158.75 51.5854L1154.55 49.6856C1153.65 49.2787 1153.25 48.2195 1153.66 47.3194Z" fill="#E5E5E5"/>
<path fill-rule="evenodd" clip-rule="evenodd" d="M1190.62 38.7416C1190.16 38.916 1189.67 38.8866 1189.25 38.6981C1188.84 38.5096 1188.49 38.1619 1188.32 37.6998C1187.97 36.7755 1188.44 35.7437 1189.36 35.3956L1193.82 33.7138C1194.74 33.3651 1195.77 33.8316 1196.12 34.7559C1196.47 35.6793 1196 36.711 1195.08 37.06L1190.62 38.7416Z" fill="#E5E5E5"/>
<path fill-rule="evenodd" clip-rule="evenodd" d="M1174.5 82.5063C1174.08 82.3178 1173.74 81.9701 1173.56 81.508L1171.88 77.0501C1171.53 76.1258 1172 75.0947 1172.92 74.7459C1173.85 74.3972 1174.88 74.8637 1175.23 75.7878L1176.91 80.2459C1177.26 81.1699 1176.79 82.2017 1175.87 82.5501C1175.4 82.7244 1174.92 82.6951 1174.5 82.5063Z" fill="#E5E5E5"/>
<path fill-rule="evenodd" clip-rule="evenodd" d="M1151.54 21.6442C1151.12 21.4556 1150.77 21.108 1150.6 20.6459L1148.92 16.188C1148.57 15.2637 1149.04 14.2319 1149.96 13.8832C1150.88 13.5342 1151.91 14.0013 1152.26 14.925L1153.95 19.3829C1154.29 20.3072 1153.83 21.339 1152.9 21.688C1152.44 21.8623 1151.95 21.8327 1151.54 21.6442Z" fill="#E5E5E5"/>
<path fill-rule="evenodd" clip-rule="evenodd" d="M1135.26 57.7173C1135.61 58.641 1135.14 59.6728 1134.22 60.0215L1129.76 61.7033C1129.3 61.8777 1128.81 61.8483 1128.39 61.6598C1127.97 61.4713 1127.63 61.1237 1127.46 60.6615C1127.11 59.7379 1127.57 58.7061 1128.5 58.3574L1132.96 56.6755C1133.88 56.3268 1134.91 56.7933 1135.26 57.7173Z" fill="#E5E5E5"/>
<path fill-rule="evenodd" clip-rule="evenodd" d="M1135.2 36.971L1130.86 35.008C1129.96 34.6011 1129.56 33.5418 1129.96 32.6418C1130.37 31.7418 1131.43 31.3421 1132.33 31.7491L1136.67 33.7121C1137.57 34.119 1137.97 35.1783 1137.56 36.0783C1137.16 36.9783 1136.1 37.378 1135.2 36.971Z" fill="#E5E5E5"/>
<path fill-rule="evenodd" clip-rule="evenodd" d="M1156.48 60.9538C1157.37 61.3596 1157.78 62.4225 1157.37 63.32C1156.96 64.2175 1155.9 64.6185 1155 64.2127C1154.11 63.8069 1153.7 62.744 1154.11 61.8465C1154.52 60.949 1155.58 60.548 1156.48 60.9538Z" fill="#E5E5E5"/>
<path fill-rule="evenodd" clip-rule="evenodd" d="M1181.46 55.9276C1181.87 55.0301 1182.93 54.6291 1183.83 55.0349C1184.73 55.4409 1185.13 56.5036 1184.72 57.4011C1184.32 58.2985 1183.25 58.6998 1182.36 58.2938C1181.46 57.888 1181.06 56.825 1181.46 55.9276Z" fill="#E5E5E5"/>
<path d="M932.189 518.405C915.129 518.405 902.266 513.841 896.187 503.323C885.806 485.327 901.056 455.583 938.026 421.705C940.172 419.738 943.506 419.886 945.462 422.031C947.429 424.177 947.282 427.5 945.136 429.467C913.572 458.381 897.932 485.306 905.295 498.054C916.854 518.069 987.712 506.899 1070.92 458.864C1154.12 410.819 1199.22 355.044 1187.67 335.028C1180.31 322.291 1149.18 322.365 1108.38 335.207C1105.64 336.08 1102.67 334.545 1101.79 331.778C1100.91 329.002 1102.45 326.057 1105.23 325.184C1153.04 310.122 1186.4 311.805 1196.77 329.78C1216.05 363.184 1149.03 425.923 1076.18 467.983C1026.26 496.802 969.306 518.405 932.189 518.405Z" fill="#E5E5E5"/>
<path d="M969.485 457.444C958.189 457.444 950.458 454.184 946.745 447.758C945.294 445.244 946.156 442.025 948.67 440.574C951.173 439.091 954.402 439.974 955.854 442.499C958.063 446.317 967.139 448.957 985.924 444.907C1004.28 440.953 1026.51 431.76 1048.56 419.034C1097.94 390.52 1120.68 359.892 1115.24 350.468C1113.79 347.955 1114.65 344.736 1117.16 343.285C1119.67 341.812 1122.89 342.685 1124.35 345.21C1136.21 365.772 1096.87 403.278 1053.81 428.132C1030.85 441.394 1007.52 451.008 988.133 455.183C981.138 456.698 974.901 457.444 969.485 457.444Z" fill="#E5E5E5"/>
<path d="M950.332 450.955C948.513 450.955 946.746 450.009 945.767 448.326C917.348 399.092 934.271 335.912 983.505 307.483C1032.74 279.022 1095.93 295.966 1124.36 345.21C1125.81 347.724 1124.95 350.942 1122.43 352.393C1119.92 353.855 1116.7 352.982 1115.25 350.469C1089.72 306.263 1032.98 291.064 988.764 316.58C944.558 342.118 929.36 398.85 954.876 443.056C956.327 445.57 955.465 448.789 952.951 450.24C952.12 450.724 951.226 450.955 950.332 450.955Z" fill="#E5E5E5"/>
<path d="M1042.89 513.42C1027.46 513.42 1011.99 509.949 997.662 502.976C995.043 501.714 993.96 498.559 995.232 495.95C996.505 493.342 999.65 492.258 1002.26 493.531C1029.99 507.015 1062.49 505.889 1089.17 490.491C1115.89 475.062 1133.12 447.463 1135.24 416.657C1135.44 413.764 1138.03 411.587 1140.86 411.766C1143.75 411.976 1145.94 414.48 1145.74 417.372C1143.36 451.681 1124.18 482.414 1094.43 499.579C1078.51 508.792 1060.73 513.42 1042.89 513.42Z" fill="#E5E5E5"/>
<path d="M1152.68 249.185L1161.2 258.57L1161.93 259.377L1162.92 258.93L1174.48 253.734L1168.18 264.73L1167.64 265.676L1168.37 266.483L1176.89 275.868L1164.48 273.279L1163.42 273.057L1162.88 274.003L1156.58 284.999L1155.21 272.403L1155.09 271.319L1154.02 271.096L1141.62 268.508L1153.18 263.312L1154.17 262.865L1154.05 261.781L1152.68 249.185Z" stroke="#E5E5E5" stroke-width="3"/>
<path d="M1132.61 507.019L1141.13 516.404L1141.86 517.211L1142.85 516.764L1154.41 511.568L1148.11 522.565L1147.57 523.51L1148.3 524.318L1156.82 533.702L1144.41 531.114L1143.35 530.891L1142.8 531.837L1136.51 542.833L1135.14 530.237L1135.02 529.153L1133.95 528.931L1121.55 526.342L1133.11 521.146L1134.1 520.699L1133.98 519.615L1132.61 507.019Z" stroke="#E5E5E5" stroke-width="3"/>
<path d="M1235.99 312.48L1237.83 320.594L1238.07 321.657L1239.15 321.756L1247.44 322.516L1240.29 326.771L1239.35 327.328L1239.59 328.391L1241.43 336.504L1235.17 331.02L1234.35 330.302L1233.42 330.859L1226.27 335.114L1229.55 327.47L1229.98 326.469L1229.16 325.75L1222.91 320.266L1231.19 321.026L1232.28 321.126L1232.71 320.124L1235.99 312.48Z" stroke="#E5E5E5" stroke-width="3"/>
<path d="M718.942 23.584L713.167 34.827L712.669 35.7964L711.594 35.6224L699.116 33.6045L708.025 42.571L708.793 43.3441L708.295 44.3135L702.52 55.5565L713.8 49.8551L714.773 49.3635L715.541 50.1366L724.449 59.1031L722.513 46.6129L722.346 45.536L723.318 45.0444L734.599 39.343L722.122 37.3251L721.046 37.1511L720.879 36.0741L718.942 23.584Z" stroke="#E5E5E5" stroke-width="3"/>
<path d="M395.882 41.2325L392.917 47.005L392.42 47.9744L391.344 47.8004L384.938 46.7643L389.511 51.3679L390.279 52.1411L389.781 53.1105L386.817 58.8829L392.608 55.9557L393.581 55.4641L394.349 56.2372L398.923 60.8408L397.928 54.4281L397.761 53.3511L398.734 52.8595L404.526 49.9323L398.12 48.8962L397.044 48.7222L396.877 47.6453L395.882 41.2325Z" stroke="#E5E5E5" stroke-width="3"/>
</svg>
