<svg width="25" height="26" viewBox="0 0 25 26" fill="none" xmlns="http://www.w3.org/2000/svg">
<path d="M24.0918 1.20235L19.0138 0.029841C18.462 -0.0971805 17.8957 0.191061 17.671 0.708917L15.3273 6.18061C15.1223 6.65939 15.259 7.22121 15.6643 7.54854L18.6232 9.97172C16.8654 13.7189 13.7942 16.8358 9.97101 18.6287L7.54918 15.6681C7.21716 15.2626 6.66053 15.1259 6.18202 15.331L0.713385 17.6761C0.190934 17.9057 -0.0971457 18.4724 0.0298048 19.0244L1.20166 24.1053C1.32372 24.6329 1.79246 25.014 2.34421 25.014C14.8488 25.014 25 14.8767 25 2.34554C25 1.79837 24.624 1.32448 24.0918 1.20235Z" fill="#855AFE"/>
</svg>
