<svg width="25" height="26" viewBox="0 0 25 26" fill="none" xmlns="http://www.w3.org/2000/svg">
<path d="M21.2556 3.63484C18.9174 1.28978 15.8036 0 12.4944 0C5.66406 0 0.106027 5.56114 0.106027 12.3953C0.106027 14.5785 0.675223 16.7113 1.75781 18.593L0 25.014L6.56808 23.2887C8.37612 24.277 10.4129 24.7962 12.4888 24.7962H12.4944C19.3192 24.7962 25 19.2351 25 12.4009C25 9.0899 23.5938 5.9799 21.2556 3.63484ZM12.4944 22.708C10.6417 22.708 8.82812 22.2111 7.24888 21.273L6.875 21.0497L2.97991 22.0715L4.01786 18.2691L3.77232 17.8783C2.73996 16.2368 2.19866 14.344 2.19866 12.3953C2.19866 6.71692 6.8192 2.0938 12.5 2.0938C15.2511 2.0938 17.8348 3.16583 19.7768 5.11446C21.7188 7.0631 22.9129 9.64825 22.9074 12.4009C22.9074 18.0849 18.1696 22.708 12.4944 22.708ZM18.1417 14.9916C17.8348 14.8353 16.3114 14.0871 16.0268 13.9866C15.7422 13.8805 15.5357 13.8303 15.3292 14.1429C15.1228 14.4556 14.5312 15.148 14.3471 15.3601C14.1685 15.5667 13.9844 15.5947 13.6775 15.4383C11.8583 14.5282 10.6641 13.8135 9.46429 11.7532C9.14621 11.206 9.78237 11.2451 10.3739 10.0614C10.4743 9.85484 10.4241 9.67616 10.346 9.51983C10.2679 9.36349 9.64844 7.8392 9.39174 7.21944C9.14062 6.61642 8.88393 6.70017 8.6942 6.68901C8.51562 6.67784 8.30915 6.67784 8.10268 6.67784C7.8962 6.67784 7.56138 6.75601 7.27679 7.0631C6.99219 7.37577 6.1942 8.12396 6.1942 9.64825C6.1942 11.1725 7.30469 12.6466 7.45536 12.8532C7.61161 13.0598 9.63728 16.1865 12.7455 17.5321C14.7098 18.3808 15.4799 18.4534 16.4621 18.3082C17.0592 18.2189 18.2924 17.56 18.5491 16.8342C18.8058 16.1083 18.8058 15.4886 18.7277 15.3601C18.6551 15.2206 18.4487 15.1424 18.1417 14.9916Z" fill="#FFF"/>
</svg>
