<svg width="250" height="251" viewBox="0 0 250 251" fill="none" xmlns="http://www.w3.org/2000/svg">
<path d="M21.6055 239.662C0.288025 231.053 -4.48297 205.302 9.90553 184.094C24.294 162.886 68.3515 162.255 116.494 162.255C164.637 162.255 156.72 166.718 174.38 162.255C192.039 157.792 184.975 112.814 161.009 105.98C137.042 99.1457 133.945 104.51 83.138 105.98C32.331 107.45 19.8535 125.298 4.93102 105.98C-9.99148 86.6612 10.7945 48.6527 42.5935 22.8267C74.3925 -2.99929 115.252 -2.1613 132.128 2.6682C149.005 7.4977 86.828 24.2967 110.1 42.1452C133.371 59.9937 195.726 24.9267 225.215 74.0627C237.483 94.5032 245.662 120.177 248.692 145.813C252.942 181.754 247.042 217.599 228.058 238.692C195.548 274.809 116.502 212.332 95.177 218.533C73.8525 224.734 42.9235 248.272 21.6055 239.662Z" fill="url(#paint0_linear)"/>
<path opacity="0.2" d="M21.6055 239.662C0.288046 231.052 2.24006 211.341 16.6291 190.132C31.0181 168.924 68.3521 162.255 116.495 162.255C164.637 162.255 156.721 166.718 174.38 162.255C192.04 157.792 184.976 112.813 161.009 105.979C137.043 99.1453 133.946 104.509 83.1386 105.979C32.3316 107.449 25.6676 120.452 10.7451 101.133C-4.17744 81.8132 10.795 48.6543 42.595 22.8263C74.3951 -3.00173 115.253 -2.16174 132.13 2.66776C149.006 7.49726 66.5451 32.6178 89.8171 50.4653C113.089 68.3128 195.728 24.9258 225.217 74.0623C237.485 94.5028 245.664 120.176 248.694 145.812C252.944 181.754 230.167 212.072 211.181 233.162C178.671 269.279 116.503 212.33 95.1806 218.531C73.8581 224.732 42.9235 248.271 21.6055 239.662Z" fill="white"/>
<path d="M130.065 126.889L121.875 121.149L35.7745 243.999L43.9645 249.739L130.065 126.889Z" fill="#C5A67C"/>
<path d="M146.109 58.2521L136.712 61.6723L205.116 249.611L214.513 246.191L146.109 58.2521Z" fill="#C5A67C"/>
<path d="M117.215 203L193.278 200.889L196.922 210.35L120.43 212.151L117.215 203Z" fill="#D9B991"/>
<path d="M68.1089 58.2521L58.712 61.6723L127.116 249.611L136.513 246.191L68.1089 58.2521Z" fill="#E8C496"/>
<path d="M61.0236 76.3695L159.172 74.8501L201.922 192.35L101.126 193.91L61.0236 76.3695Z" fill="#C8C7C7"/>
<path d="M204.567 187.605L104.304 189.157L64.3715 72.1141L161.998 70.6028L204.567 187.605Z" fill="white"/>
<path d="M64.7192 72.3588L104.482 188.905L204.212 187.361L161.824 70.8557L64.7192 72.3588ZM64.0238 71.8693L162.172 70.3501L204.922 187.85L104.126 189.41L64.0238 71.8693Z" fill="#C8C7C7"/>
<path d="M133.268 87.6133C133.268 87.6133 146.168 83.3483 153.549 90.4708C160.929 97.5933 162.972 118.96 162.972 118.96C162.972 118.96 164.113 128.97 161.657 129.2C159.202 129.43 158.15 118.96 158.15 118.96C158.15 118.96 155.529 101.27 149.612 95.9003C143.696 90.5303 133.269 92.9848 133.269 92.9848C133.269 92.9848 128.119 95.0663 127.898 92.2173C127.677 89.3683 133.268 87.6133 133.268 87.6133Z" fill="url(#paint1_linear)"/>
<path d="M133.862 165.437C133.862 165.437 120.962 169.702 113.582 162.58C106.201 155.457 104.159 134.091 104.159 134.091C104.159 134.091 103.018 124.08 105.473 123.85C107.929 123.62 108.98 134.091 108.98 134.091C108.98 134.091 111.603 151.781 117.52 157.15C123.437 162.519 133.863 160.066 133.863 160.066C133.863 160.066 139.013 157.984 139.234 160.833C139.455 163.682 133.862 165.437 133.862 165.437Z" fill="url(#paint2_linear)"/>
<path d="M111.752 107.161C111.752 107.161 105.155 100.094 107.589 97.7652C110.023 95.4367 117.055 101.857 117.055 101.857L154.965 139.767C154.965 139.767 162.82 147.673 160.405 150.298C157.99 152.923 149.662 145.071 149.662 145.071L111.752 107.161Z" fill="url(#paint3_linear)"/>
<defs>
<linearGradient id="paint0_linear" x1="125" y1="0.000854492" x2="125" y2="250.003" gradientUnits="userSpaceOnUse">
<stop stop-color="#FF5E35"/>
<stop offset="0.548" stop-color="#FF6275"/>
<stop offset="1" stop-color="#9B4CFF"/>
</linearGradient>
<linearGradient id="paint1_linear" x1="145.564" y1="86.3467" x2="175.054" y2="148.419" gradientUnits="userSpaceOnUse">
<stop stop-color="#FF5E35"/>
<stop offset="1" stop-color="#FF5E35" stop-opacity="0.2"/>
</linearGradient>
<linearGradient id="paint2_linear" x1="108.277" y1="132.504" x2="161.936" y2="177.559" gradientUnits="userSpaceOnUse">
<stop stop-color="#9B4CFF"/>
<stop offset="1" stop-color="#994BFC" stop-opacity="0.2"/>
</linearGradient>
<linearGradient id="paint3_linear" x1="107.624" y1="97.7296" x2="93.3735" y2="173.068" gradientUnits="userSpaceOnUse">
<stop stop-color="#FF6275"/>
<stop offset="1" stop-color="#FC6174" stop-opacity="0.2"/>
</linearGradient>
</defs>
</svg>
