<svg width="250" height="216" viewBox="0 0 250 216" fill="none" xmlns="http://www.w3.org/2000/svg">
<path d="M7.919 11.7775C-10.216 38.4205 6.319 56.0055 22.319 68.2615C38.319 80.5175 60.129 75.1885 115.662 75.1885C171.195 75.1885 181.178 116.337 153.532 124.213C125.886 132.089 145.964 116.742 87.357 115.048C28.75 113.354 15.717 109.148 7.917 124.213C0.116997 139.278 29.786 204.676 105.527 213.735C181.268 222.794 159.932 172.704 144.464 175.368C128.996 178.032 105.325 181.84 102.326 168.974C99.327 156.108 167.026 163.727 205.599 147.741C244.172 131.755 253.357 98.5225 249.008 68.2615C244.659 38.0005 205.676 28.5685 188.202 26.6975C158.332 23.4975 146.124 25.3175 121.529 18.1715C96.934 11.0255 26.054 -14.8665 7.919 11.7775Z" fill="url(#paint0_linear)"/>
<path opacity="0.3" d="M18.055 12.8426C-0.0799952 39.4856 6.32 56.0056 22.322 68.2616C38.324 80.5176 60.132 75.1886 115.664 75.1886C171.196 75.1886 181.18 116.337 153.534 124.213C125.888 132.089 145.966 116.742 87.36 115.048C28.754 113.354 19.123 125.811 18.06 135.936C16.997 146.061 29.794 204.676 105.534 213.736C181.274 222.796 151.405 180.165 135.934 182.829C120.463 185.493 105.334 181.841 102.334 168.975C99.334 156.109 167.034 163.728 205.606 147.742C244.178 131.756 251.897 94.6606 244.214 68.2636C236.531 41.8666 192.348 44.0236 174.874 42.1526C145.005 38.9526 146.131 25.3196 121.536 18.1736C96.941 11.0276 36.19 -13.8004 18.055 12.8426Z" fill="white"/>
<path d="M43.81 61.789C43.81 59.5144 44.7135 57.333 46.3218 55.7245C47.9301 54.116 50.1114 53.2123 52.386 53.212H78.115L81.549 44.648L108.996 44.641L112.421 53.212H138.151C140.426 53.2123 142.607 54.116 144.215 55.7245C145.823 57.333 146.727 59.5144 146.727 61.789H43.81Z" fill="#855AFE"/>
<path d="M108.811 138.969L101.787 143.892L141.367 200.365L148.39 195.443L108.811 138.969Z" fill="#E8C496"/>
<path d="M98.699 144.462H90.123V200.38H98.699V144.462Z" fill="#E8C496"/>
<path d="M42.0963 195.453L49.12 200.376L88.6996 143.903L81.6758 138.98L42.0963 195.453Z" fill="#E8C496"/>
<path d="M115.852 138.752H74.685V149.044H115.852V138.752Z" fill="#D9B991"/>
<path d="M43.81 130.198H146.727C146.727 131.324 146.505 132.44 146.074 133.48C145.643 134.521 145.011 135.466 144.215 136.262C143.418 137.059 142.473 137.691 141.432 138.121C140.392 138.552 139.276 138.774 138.15 138.774H52.386C50.1115 138.774 47.9302 137.87 46.3218 136.262C44.7135 134.654 43.81 132.472 43.81 130.198V130.198Z" fill="#855AFE"/>
<path d="M143.297 61.788H47.241V130.399H143.297V61.788Z" fill="#EEEEEE"/>
<path d="M143.297 61.788H95.269V130.399H143.297V61.788Z" fill="#E3E3E3"/>
<path d="M119.283 114.962C129.704 114.962 138.151 106.514 138.151 96.094C138.151 85.6735 129.704 77.226 119.283 77.226C108.862 77.226 100.415 85.6735 100.415 96.094C100.415 106.514 108.862 114.962 119.283 114.962Z" fill="#B972F1"/>
<path d="M119.283 114.962C129.704 114.962 138.151 106.514 138.151 96.094C138.151 85.6735 129.704 77.226 119.283 77.226C108.862 77.226 100.415 85.6735 100.415 96.094C100.415 106.514 108.862 114.962 119.283 114.962Z" fill="#FF818A"/>
<path d="M64.394 94.378H57.533V108.1H64.394V94.378Z" fill="#FF9A35"/>
<path d="M74.686 80.656H67.825V108.1H74.686V80.656Z" fill="#C975DA"/>
<path d="M84.977 87.517H78.116V108.1H84.977V87.517Z" fill="#FF807D"/>
<path d="M90.123 108.1H52.387V111.531H90.123V108.1Z" fill="#707070"/>
<path d="M177.764 132.356V98.394H167.815V88.102H205.208V88.108C207.877 88.197 210.406 89.3197 212.263 91.2389C214.119 93.1582 215.157 95.7238 215.157 98.394H205.208V132.356H177.764Z" fill="white"/>
<path d="M198.004 88.102H200.748C203.478 88.102 206.095 89.1863 208.026 91.1164C209.956 93.0466 211.04 95.6644 211.04 98.394H198.004V88.102Z" fill="white"/>
<path d="M196.975 72.08C196.975 69.0485 194.517 66.591 191.486 66.591C188.455 66.591 185.997 69.0485 185.997 72.08V88.546C185.997 91.5775 188.455 94.035 191.486 94.035C194.517 94.035 196.975 91.5775 196.975 88.546V72.08Z" fill="#C9B5A4"/>
<path d="M201.778 70.022C201.778 64.3379 197.17 59.73 191.486 59.73C185.803 59.73 181.195 64.3379 181.195 70.022V76.882C181.195 82.5661 185.803 87.174 191.486 87.174C197.17 87.174 201.778 82.5661 201.778 76.882V70.022Z" fill="#F0D0B4"/>
<path d="M206.581 98.361H215.157V135.239C215.157 136.376 214.705 137.467 213.901 138.271C213.097 139.075 212.006 139.527 210.869 139.527C209.732 139.527 208.641 139.075 207.837 138.271C207.033 137.467 206.581 136.376 206.581 135.239V98.361Z" fill="#F0D0B4"/>
<path d="M192.172 193.862V142.062H190.8V193.862C190.8 195.591 190.113 197.249 188.891 198.471C187.669 199.693 186.011 200.38 184.282 200.38C182.553 200.38 180.895 199.693 179.673 198.471C178.451 197.249 177.764 195.591 177.764 193.862V131.769H205.209V193.862C205.209 195.591 204.522 197.249 203.3 198.471C202.077 199.694 200.419 200.381 198.69 200.381C196.962 200.381 195.304 199.694 194.081 198.471C192.859 197.249 192.172 195.591 192.172 193.862Z" fill="#707070"/>
<path d="M154.721 98.495C154.219 98.4957 153.735 98.3067 153.366 97.966L153.057 98.322C153.048 98.3325 153.038 98.3411 153.026 98.3474C153.013 98.3536 153 98.3573 152.987 98.3582C152.973 98.3592 152.959 98.3573 152.947 98.3528C152.934 98.3483 152.922 98.3412 152.912 98.332L137.455 84.895C136.938 84.4538 136.513 83.9145 136.205 83.3082C135.898 82.7019 135.713 82.0407 135.663 81.3627C135.612 80.6847 135.696 80.0034 135.91 79.3582C136.125 78.7129 136.465 78.1165 136.911 77.6034C137.357 77.0903 137.9 76.6707 138.509 76.3688C139.118 76.0669 139.781 75.8887 140.46 75.8445C141.138 75.8002 141.819 75.8909 142.462 76.1112C143.105 76.3315 143.698 76.6771 144.207 77.128L156.948 88.203H168.159V98.495H154.721Z" fill="#F0D0B4"/>
<defs>
<linearGradient id="paint0_linear" x1="17.7499" y1="260.376" x2="164.4" y2="-26.2787" gradientUnits="userSpaceOnUse">
<stop offset="0.133261" stop-color="#A14DF6"/>
<stop offset="0.651147" stop-color="#FF8187"/>
<stop offset="1" stop-color="#FF6345"/>
</linearGradient>
</defs>
</svg>
