<svg width="272" height="299" viewBox="0 0 272 299" fill="none" xmlns="http://www.w3.org/2000/svg">
<path d="M121.039 290.863C93.1033 316.71 48.5803 269.539 43.1702 224.853C37.7602 180.167 79.5903 181.532 132.559 181.5C185.528 181.468 146.737 137.279 132.559 119.02C118.088 100.384 27.0903 185.488 14.2033 167.748C1.31625 150.008 19.7888 139.385 3.72009 112.588C-12.3486 85.792 43.9156 38.6188 72.1837 11.0948C100.452 -16.4291 163.215 18.4011 130.38 48.8106C97.5452 79.2201 84.8868 65.1959 84.8868 85.1897C137.363 71.9661 150.221 29.7853 184.798 30.1897C219.374 30.5941 259.963 56.2709 255.798 85.1897C251.632 114.108 302.857 198.203 241.102 220.033C179.346 241.863 161.591 229.145 138.124 235.984C114.658 242.824 148.976 265.023 121.039 290.863Z" fill="url(#paint0_linear)"/>
<path opacity="0.3" d="M107 276C79.0638 301.847 48.5803 269.539 43.1702 224.853C37.7601 180.167 79.5903 181.532 132.559 181.5C185.528 181.468 146.737 137.279 132.559 119.02C118.088 100.384 27.0903 185.488 14.2033 167.748C1.31625 150.008 40.5687 145.817 24.5 119.02C8.43126 92.2239 43.9156 38.6188 72.1837 11.0948C102 -14 146.5 11.0948 130.38 48.8106C97.5452 79.2201 84.8868 65.1959 84.8868 85.1897C137.363 71.9661 150.221 29.7853 184.798 30.1897C219.374 30.5941 245.267 66.5812 241.102 95.5C236.936 124.419 302.857 198.203 241.102 220.033C179.346 241.863 161.591 229.145 138.124 235.984C114.658 242.824 134.936 250.161 107 276Z" fill="white"/>
<path d="M107.351 178.011H145.351V193.719H107.351V178.011Z" fill="#5A5A5A"/>
<path d="M187.443 180.205H65.4119C63.6255 180.267 61.8873 179.619 60.5784 178.401C59.2695 177.184 58.4969 175.497 58.4298 173.711V81.325C58.4969 79.5387 59.2695 77.8519 60.5784 76.6346C61.8873 75.4172 63.6255 74.7685 65.4119 74.8308H187.443C189.23 74.7685 190.968 75.4172 192.277 76.6346C193.586 77.8519 194.358 79.5387 194.425 81.325V173.711C194.358 175.497 193.586 177.184 192.277 178.401C190.968 179.619 189.23 180.267 187.443 180.205Z" fill="white"/>
<path d="M194.429 81.3252V173.711C194.345 175.513 193.55 177.208 192.219 178.425C190.888 179.642 189.129 180.282 187.327 180.205H178.653C180.455 180.282 182.214 179.642 183.545 178.425C184.876 177.208 185.67 175.513 185.754 173.711V81.3252C185.67 79.5236 184.876 77.8287 183.545 76.6116C182.214 75.3945 180.455 74.7542 178.653 74.8311H187.327C189.129 74.7542 190.888 75.3945 192.219 76.6116C193.55 77.8287 194.345 79.5236 194.429 81.3252Z" fill="#E3E3E3"/>
<path d="M194.273 163.436H58.4298V173.248C58.4313 175.096 59.1668 176.868 60.4744 178.173C61.7821 179.479 63.555 180.212 65.403 180.211H187.298C188.214 180.212 189.12 180.032 189.965 179.683C190.811 179.333 191.58 178.82 192.227 178.174C192.875 177.527 193.389 176.759 193.739 175.914C194.09 175.069 194.271 174.163 194.272 173.248L194.273 163.436Z" fill="#838383"/>
<path d="M194.274 163.435V173.248C194.273 174.163 194.092 175.069 193.742 175.914C193.391 176.759 192.877 177.527 192.229 178.174C191.582 178.82 190.813 179.333 189.968 179.683C189.122 180.032 188.216 180.212 187.301 180.211H178.782C179.697 180.212 180.604 180.032 181.449 179.683C182.295 179.333 183.064 178.82 183.711 178.174C184.359 177.527 184.873 176.759 185.224 175.914C185.575 175.069 185.756 174.163 185.756 173.248V163.435H194.274Z" fill="#5A5A5A"/>
<path d="M194.429 91.1264H58.4298V79.6076C58.4298 76.9694 61.5549 74.8315 65.4108 74.8315H187.443C191.299 74.8315 194.425 76.9694 194.425 79.6076L194.429 91.1264Z" fill="#ACACAC"/>
<path d="M194.429 79.6061V91.126H185.684V79.6061C185.684 76.969 182.537 74.8311 178.653 74.8311H187.399C191.281 74.8311 194.429 76.969 194.429 79.6061Z" fill="#9C9C9C"/>
<path d="M157.665 202.866H95.0371C94.8577 202.866 94.6801 202.831 94.5143 202.763C94.3486 202.694 94.1979 202.594 94.071 202.467C93.944 202.34 93.8433 202.19 93.7745 202.024C93.7057 201.858 93.6703 201.681 93.6701 201.502V197.079C93.6707 196.365 93.8118 195.658 94.0855 194.999C94.3592 194.34 94.76 193.741 95.265 193.237C95.7701 192.733 96.3695 192.333 97.0291 192.06C97.6887 191.788 98.3955 191.648 99.1092 191.648H153.589C154.303 191.648 155.009 191.788 155.669 192.06C156.329 192.333 156.928 192.733 157.433 193.237C157.938 193.741 158.339 194.34 158.613 194.999C158.886 195.658 159.027 196.365 159.028 197.079V201.502C159.028 201.863 158.884 202.21 158.629 202.465C158.373 202.721 158.027 202.865 157.665 202.866Z" fill="#838383"/>
<path d="M159.031 197.077V201.503C159.031 201.865 158.886 202.212 158.63 202.468C158.373 202.724 158.026 202.868 157.663 202.867H152.838V197.074C152.837 195.633 152.263 194.252 151.244 193.234C150.224 192.216 148.842 191.644 147.401 191.645H153.593C154.307 191.644 155.014 191.784 155.674 192.057C156.333 192.33 156.933 192.73 157.438 193.234C157.943 193.739 158.344 194.338 158.617 194.997C158.89 195.657 159.031 196.364 159.031 197.077Z" fill="#5A5A5A"/>
<path d="M114.579 137.837C113.89 137.839 113.228 137.569 112.738 137.085L104.343 128.79C104.102 128.553 103.91 128.271 103.779 127.959C103.648 127.647 103.581 127.312 103.581 126.973C103.581 126.635 103.648 126.3 103.779 125.988C103.91 125.676 104.102 125.393 104.343 125.156L112.738 116.864C113.229 116.383 113.889 116.113 114.576 116.113C115.264 116.113 115.924 116.383 116.415 116.864C116.656 117.101 116.847 117.384 116.978 117.696C117.109 118.008 117.176 118.343 117.176 118.681C117.176 119.019 117.109 119.354 116.978 119.666C116.847 119.978 116.656 120.261 116.415 120.498L109.858 126.975L116.415 133.451C116.656 133.688 116.848 133.971 116.979 134.283C117.109 134.595 117.177 134.93 117.177 135.268C117.177 135.606 117.109 135.941 116.979 136.253C116.848 136.565 116.656 136.848 116.415 137.085C115.925 137.567 115.266 137.838 114.579 137.837Z" fill="#FF9A35"/>
<path d="M134.472 137.837C133.783 137.839 133.122 137.569 132.631 137.085C132.39 136.848 132.198 136.565 132.067 136.253C131.937 135.941 131.869 135.606 131.869 135.268C131.869 134.93 131.937 134.595 132.067 134.283C132.198 133.971 132.39 133.688 132.631 133.451L139.188 126.975L132.631 120.498C132.39 120.261 132.199 119.978 132.068 119.666C131.937 119.354 131.87 119.019 131.87 118.681C131.87 118.343 131.937 118.008 132.068 117.696C132.199 117.384 132.39 117.101 132.631 116.864C133.122 116.383 133.782 116.113 134.47 116.113C135.157 116.113 135.817 116.383 136.308 116.864L144.703 125.156C144.944 125.393 145.136 125.676 145.266 125.988C145.397 126.3 145.465 126.635 145.465 126.973C145.465 127.312 145.397 127.647 145.266 127.959C145.136 128.271 144.944 128.553 144.703 128.791L136.308 137.085C135.819 137.568 135.159 137.838 134.472 137.837Z" fill="#FF9A35"/>
<path d="M121.453 137.837C121.123 137.837 120.796 137.776 120.488 137.658C120.168 137.54 119.876 137.36 119.627 137.128C119.378 136.896 119.179 136.616 119.04 136.306C118.901 135.995 118.826 135.66 118.818 135.32C118.811 134.98 118.872 134.642 118.997 134.325L125.682 117.741C125.951 117.101 126.459 116.592 127.098 116.322C127.736 116.051 128.456 116.041 129.102 116.292C129.421 116.41 129.714 116.59 129.962 116.822C130.211 117.054 130.411 117.334 130.549 117.645C130.688 117.955 130.764 118.29 130.771 118.63C130.779 118.97 130.718 119.308 130.593 119.625L123.908 136.208C123.707 136.693 123.366 137.107 122.929 137.397C122.491 137.688 121.977 137.841 121.453 137.837Z" fill="#FF9A35"/>
<path d="M75.4678 83.1367C75.4692 83.9219 75.2375 84.6897 74.8022 85.3431C74.3668 85.9965 73.7474 86.5061 73.0223 86.8073C72.2973 87.1084 71.4991 87.1877 70.729 87.035C69.9588 86.8823 69.2513 86.5046 68.696 85.9495C68.1406 85.3945 67.7625 84.6872 67.6094 83.9171C67.4562 83.1471 67.535 82.3489 67.8358 81.6236C68.1366 80.8984 68.6458 80.2787 69.2989 79.843C69.9521 79.4073 70.7198 79.1752 71.505 79.1761C72.5555 79.1764 73.563 79.5937 74.306 80.3363C75.0491 81.079 75.4669 82.0862 75.4678 83.1367Z" fill="#FF5770"/>
<path d="M90.7868 83.1367C90.7879 83.9214 90.5562 84.6888 90.1211 85.3418C89.6859 85.9947 89.0669 86.504 88.3423 86.805C87.6176 87.1061 86.82 87.1854 86.0502 87.033C85.2805 86.8806 84.5733 86.5033 84.018 85.9488C83.4628 85.3943 83.0845 84.6876 82.931 83.9181C82.7775 83.1486 82.8557 82.3508 83.1557 81.6258C83.4558 80.9007 83.9641 80.281 84.6165 79.8449C85.2689 79.4088 86.0359 79.1761 86.8206 79.1761C87.3411 79.1756 87.8566 79.2778 88.3376 79.4766C88.8187 79.6754 89.2558 79.967 89.6241 80.3348C89.9924 80.7026 90.2847 81.1394 90.4842 81.6201C90.6837 82.1009 90.7865 82.6162 90.7868 83.1367Z" fill="#FFD86E"/>
<path d="M106.107 83.1367C106.108 83.9214 105.876 84.6888 105.441 85.3418C105.006 85.9947 104.387 86.504 103.662 86.805C102.938 87.1061 102.14 87.1854 101.37 87.033C100.601 86.8806 99.8933 86.5033 99.3381 85.9488C98.7828 85.3943 98.4045 84.6876 98.2511 83.9181C98.0976 83.1486 98.1758 82.3508 98.4758 81.6258C98.7758 80.9007 99.2842 80.281 99.9366 79.8449C100.589 79.4088 101.356 79.1761 102.141 79.1761C103.192 79.1755 104.2 79.5924 104.944 80.3351C105.688 81.0779 106.106 82.0856 106.107 83.1367Z" fill="#80E0DC"/>
<path d="M75.4667 83.1378C75.4653 83.9132 75.2365 84.6712 74.8087 85.3179C74.3809 85.9647 73.7728 86.4717 73.0598 86.7765C72.3467 87.0812 71.56 87.1701 70.7969 87.0323C70.0338 86.8945 69.3279 86.5359 68.7665 86.0011C69.5512 85.9858 70.3137 85.7374 70.9568 85.2875C71.6 84.8376 72.0947 84.2066 72.378 83.4746C72.6614 82.7427 72.7206 81.943 72.5481 81.1773C72.3755 80.4116 71.9791 79.7146 71.4092 79.1749C71.4392 79.1749 71.4727 79.1749 71.5028 79.1749C72.0233 79.1745 72.5389 79.2767 73.02 79.4757C73.501 79.6747 73.9381 79.9665 74.3063 80.3346C74.6745 80.7026 74.9665 81.1397 75.1656 81.6207C75.3647 82.1017 75.467 82.6172 75.4667 83.1378Z" fill="#FF435F"/>
<path d="M90.7868 83.1378C90.7853 83.9135 90.5563 84.6716 90.1283 85.3185C89.7003 85.9653 89.092 86.4725 88.3787 86.7772C87.6654 87.0819 86.8785 87.1708 86.1152 87.0329C85.3519 86.8949 84.6458 86.5362 84.0844 86.0011C84.8694 85.9865 85.6323 85.7386 86.2759 85.2889C86.9195 84.8393 87.4148 84.2082 87.6986 83.4762C87.9823 82.7441 88.0418 81.9441 87.8694 81.1781C87.6969 80.4122 87.3004 79.7148 86.7304 79.175C86.7604 79.1734 86.7905 79.1734 86.8206 79.175C87.3414 79.1742 87.8572 79.2762 88.3385 79.4751C88.8198 79.6739 89.2572 79.9657 89.6256 80.3338C89.994 80.7019 90.2862 81.139 90.4854 81.6202C90.6847 82.1013 90.7871 82.6171 90.7868 83.1378Z" fill="#FFB509"/>
<path d="M106.108 83.1378C106.106 83.9134 105.877 84.6715 105.449 85.3183C105.021 85.965 104.412 86.4721 103.699 86.7768C102.986 87.0814 102.199 87.1703 101.435 87.0325C100.672 86.8946 99.9661 86.536 99.4044 86.0011C100.189 85.9858 100.952 85.7374 101.595 85.2875C102.238 84.8376 102.733 84.2066 103.016 83.4746C103.299 82.7427 103.358 81.943 103.186 81.1773C103.013 80.4116 102.617 79.7146 102.047 79.1749C102.077 79.1749 102.111 79.1749 102.141 79.1749C102.661 79.1745 103.177 79.2767 103.658 79.4756C104.14 79.6745 104.577 79.9664 104.945 80.3344C105.314 80.7024 105.606 81.1394 105.806 81.6204C106.005 82.1014 106.108 82.6171 106.108 83.1378Z" fill="#00A8B0"/>
<defs>
<linearGradient id="paint0_linear" x1="15.323" y1="-58.2745" x2="245.813" y2="233.723" gradientUnits="userSpaceOnUse">
<stop stop-color="#FF6345"/>
<stop offset="0.501" stop-color="#FF8187"/>
<stop offset="1" stop-color="#A14DF6"/>
</linearGradient>
</defs>
</svg>
