<svg width="137" height="137" viewBox="0 0 137 137" fill="none" xmlns="http://www.w3.org/2000/svg">
<path d="M115.551 15.409C115.017 14.8756 114.293 14.5761 113.538 14.5761C112.783 14.5761 112.059 14.8756 111.525 15.409L89.435 37.503C88.9112 38.039 88.6199 38.7598 88.6242 39.5092C88.6285 40.2586 88.9281 40.9761 89.458 41.506C89.9879 42.0359 90.7054 42.3355 91.4548 42.3398C92.2041 42.3441 92.925 42.0528 93.461 41.529L115.555 19.435C116.088 18.9003 116.387 18.176 116.386 17.4212C116.385 16.6663 116.085 15.9426 115.551 15.409Z" fill="#F9AB00"/>
<path d="M78.525 38.983L60.235 33.767C59.5108 33.5674 58.7371 33.662 58.0824 34.0301C57.4276 34.3983 56.9448 35.0102 56.7391 35.7326C56.5334 36.455 56.6214 37.2295 56.9839 37.8873C57.3465 38.5452 57.9543 39.0332 58.675 39.245L76.965 44.461C77.6891 44.6606 78.4628 44.566 79.1175 44.1979C79.7723 43.8298 80.2551 43.2178 80.4608 42.4954C80.6666 41.773 80.5786 40.9985 80.216 40.3407C79.8534 39.6828 79.2456 39.1949 78.525 38.983Z" fill="#F9AB00"/>
<path d="M46.806 37.714C46.3357 37.1236 45.6503 36.744 44.9003 36.6585C44.1504 36.573 43.3971 36.7886 42.806 37.258L21.341 54.375C20.8789 54.7431 20.5427 55.2457 20.3791 55.8134C20.2154 56.381 20.2324 56.9855 20.4277 57.543C20.6229 58.1006 20.9868 58.5836 21.4688 58.9251C21.9509 59.2666 22.5272 59.4497 23.118 59.449C23.7605 59.4477 24.384 59.2312 24.889 58.834L46.357 41.717C46.6497 41.4839 46.8935 41.1954 47.0745 40.8679C47.2555 40.5404 47.3702 40.1805 47.4119 39.8087C47.4536 39.4368 47.4215 39.0604 47.3176 38.701C47.2136 38.3415 47.0398 38.0062 46.806 37.714Z" fill="#F9AB00"/>
<path d="M85.408 57.122C91.7471 57.122 96.886 51.9831 96.886 45.644C96.886 39.3049 91.7471 34.166 85.408 34.166C79.0689 34.166 73.93 39.3049 73.93 45.644C73.93 51.9831 79.0689 57.122 85.408 57.122Z" fill="#F9AB00"/>
<path d="M51.246 45.644C57.5851 45.644 62.724 40.5051 62.724 34.166C62.724 27.8269 57.5851 22.688 51.246 22.688C44.9069 22.688 39.768 27.8269 39.768 34.166C39.768 40.5051 44.9069 45.644 51.246 45.644Z" fill="#F9AB00"/>
<path d="M17.083 74.205C23.4221 74.205 28.561 69.0661 28.561 62.727C28.561 56.3879 23.4221 51.249 17.083 51.249C10.7439 51.249 5.60498 56.3879 5.60498 62.727C5.60498 69.0661 10.7439 74.205 17.083 74.205Z" fill="#F9AB00"/>
<path d="M119.571 22.956C125.91 22.956 131.049 17.8171 131.049 11.478C131.049 5.13888 125.91 0 119.571 0C113.232 0 108.093 5.13888 108.093 11.478C108.093 17.8171 113.232 22.956 119.571 22.956Z" fill="#F9AB00"/>
<path d="M127.048 45.377H112.093C109.884 45.377 108.093 47.1679 108.093 49.377V132.664C108.093 134.873 109.884 136.664 112.093 136.664H127.048C129.257 136.664 131.048 134.873 131.048 132.664V49.377C131.048 47.1679 129.257 45.377 127.048 45.377Z" fill="#F9AB00"/>
<path d="M92.886 79.543H77.931C75.7219 79.543 73.931 81.3339 73.931 83.543V132.664C73.931 134.873 75.7219 136.664 77.931 136.664H92.886C95.0952 136.664 96.886 134.873 96.886 132.664V83.543C96.886 81.3339 95.0952 79.543 92.886 79.543Z" fill="#F9AB00"/>
<path d="M58.723 68.332H43.768C41.5589 68.332 39.768 70.1229 39.768 72.332V132.664C39.768 134.873 41.5589 136.664 43.768 136.664H58.723C60.9321 136.664 62.723 134.873 62.723 132.664V72.332C62.723 70.1229 60.9321 68.332 58.723 68.332Z" fill="#F9AB00"/>
<path d="M24.56 96.626H9.60498C7.39584 96.626 5.60498 98.4169 5.60498 100.626V132.664C5.60498 134.873 7.39584 136.664 9.60498 136.664H24.56C26.7691 136.664 28.56 134.873 28.56 132.664V100.626C28.56 98.4169 26.7691 96.626 24.56 96.626Z" fill="#F9AB00"/>
<path d="M133.807 130.97H2.847C2.09193 130.97 1.36778 131.27 0.833867 131.804C0.299951 132.338 0 133.062 0 133.817C0 134.572 0.299951 135.296 0.833867 135.83C1.36778 136.364 2.09193 136.664 2.847 136.664H133.807C134.562 136.664 135.286 136.364 135.82 135.83C136.354 135.296 136.654 134.572 136.654 133.817C136.654 133.062 136.354 132.338 135.82 131.804C135.286 131.27 134.562 130.97 133.807 130.97Z" fill="#F9AB00"/>
</svg>
