<svg width="150" height="78" viewBox="0 0 150 78" fill="none" xmlns="http://www.w3.org/2000/svg">
<path d="M39.3818 77.9221C36.9991 77.9221 34.6116 77.0243 32.7919 75.2239L2.72962 45.4771C-0.909874 41.8812 -0.909874 36.0433 2.72962 32.4425L32.7919 2.70054C36.4313 -0.900181 42.3322 -0.900181 45.9717 2.70054C49.6112 6.30127 49.6112 12.1344 45.9717 15.7352L22.4945 38.9622L45.9717 62.1893C49.6112 65.79 49.6112 71.6232 45.9717 75.2239C44.1519 77.0243 41.7644 77.9221 39.3818 77.9221Z" fill="#9B4CFF"/>
<path d="M110.618 77.9221C108.236 77.9221 105.848 77.0243 104.028 75.2239C100.389 71.6232 100.389 65.7852 104.028 62.1893L127.505 38.9622L104.028 15.7352C100.389 12.1344 100.389 6.29647 104.028 2.70054C107.668 -0.900181 113.569 -0.900181 117.208 2.70054L147.27 32.4425C150.91 36.0433 150.91 41.8812 147.27 45.4771L117.208 75.2239C115.388 77.0243 113.001 77.9221 110.618 77.9221Z" fill="#9B4CFF"/>
<path d="M63.9965 77.9221C62.845 77.9221 61.6788 77.7157 60.542 77.2788C55.6851 75.4211 53.2935 70.0686 55.2028 65.3307L79.1579 5.84908C81.0672 1.1159 86.554 -1.22189 91.406 0.640659C96.263 2.50321 98.6546 7.85564 96.7452 12.5936L72.7902 72.0704C71.3287 75.7043 67.7659 77.9221 63.9965 77.9221Z" fill="#9B4CFF"/>
</svg>
