<svg width="175" height="120" viewBox="0 0 175 120" fill="none" xmlns="http://www.w3.org/2000/svg">
<path d="M131.122 0H7.46116C5.55259 0.23875 3.77954 1.11174 2.42655 2.47888C1.07355 3.84602 0.219051 5.62805 0.000162224 7.539V88.959C-0.00894708 90.3896 0.365731 91.7964 1.08516 93.033C1.74075 94.3271 2.75404 95.4057 4.00465 96.1409C5.25526 96.876 6.69061 97.2367 8.14016 97.18H52.7742V108.459H44.3002C43.3081 108.459 42.3567 108.853 41.6552 109.555C40.9538 110.256 40.5597 111.207 40.5597 112.2C40.5597 113.192 40.9538 114.143 41.6552 114.844C42.3567 115.546 43.3081 115.94 44.3002 115.94H94.2882C94.7845 115.948 95.2775 115.857 95.7384 115.673C96.1994 115.489 96.619 115.214 96.9729 114.866C97.3268 114.518 97.6078 114.103 97.7997 113.645C97.9915 113.187 98.0903 112.696 98.0903 112.2C98.0903 111.703 97.9915 111.212 97.7997 110.754C97.6078 110.296 97.3268 109.881 96.9729 109.533C96.619 109.185 96.1994 108.91 95.7384 108.726C95.2775 108.542 94.7845 108.451 94.2882 108.459H85.8092V97.18H130.443C131.893 97.2395 133.33 96.8801 134.581 96.1446C135.832 95.4092 136.845 94.3289 137.498 93.033C138.232 91.799 138.629 90.3944 138.651 88.959V7.539C138.429 5.61813 137.564 3.82866 136.198 2.46039C134.831 1.09213 133.043 0.225197 131.122 0ZM131.122 8.221V88.96C131.122 89.438 130.922 89.641 130.443 89.641H8.14016C7.66516 89.641 7.46116 89.441 7.46116 88.96V7.539H131.121V8.22L131.122 8.221Z" fill="#FF6275"/>
<path d="M171.182 69H148.445C146.55 69 145 70.5489 145 72.4447V116.554C145 118.45 146.55 120 148.445 120H171.182C173.076 120 174.627 118.453 174.627 116.555V72.4447C174.627 70.5489 173.076 69 171.182 69ZM156.176 71.483H163.45C163.681 71.483 163.867 71.6695 163.867 71.9012C163.867 72.1314 163.681 72.3179 163.45 72.3179H156.176C155.946 72.3179 155.76 72.1314 155.76 71.9012C155.76 71.6695 155.946 71.483 156.176 71.483ZM159.813 118.278C158.862 118.278 158.091 117.507 158.091 116.554C158.091 115.601 158.862 114.832 159.813 114.832C160.765 114.832 161.536 115.601 161.536 116.554C161.536 117.507 160.765 118.278 159.813 118.278ZM172.23 113.625H147.397V74.4628H172.23V113.625Z" fill="#FF6275"/>
</svg>
