<svg width="125" height="125" viewBox="0 0 125 125" fill="none" xmlns="http://www.w3.org/2000/svg">
<path d="M116.478 0C118.738 0.000129495 120.906 0.898138 122.504 2.49649C124.102 4.09484 125 6.26261 125 8.52295V59.6592C124.983 61.9084 124.078 64.0596 122.481 65.6441C120.885 67.2285 118.727 68.1176 116.477 68.1176C114.228 68.1176 112.07 67.2285 110.474 65.6441C108.877 64.0596 107.972 61.9084 107.955 59.6592V8.52295C107.955 6.26252 108.853 4.09468 110.451 2.49631C112.049 0.897951 114.217 0 116.478 0V0Z" fill="#C9463D"/>
<path d="M65.3413 0H116.478C118.727 0.0170245 120.878 0.922452 122.462 2.51892C124.047 4.11539 124.936 6.27345 124.936 8.52271C124.936 10.772 124.047 12.93 122.462 14.5265C120.878 16.123 118.727 17.0284 116.478 17.0454H65.3413C63.0921 17.0284 60.9409 16.123 59.3564 14.5265C57.772 12.93 56.8829 10.772 56.8829 8.52271C56.8829 6.27345 57.772 4.11539 59.3564 2.51892C60.9409 0.922452 63.0921 0.0170245 65.3413 0V0Z" fill="#FF5E35"/>
<path d="M8.52295 56.8176C10.7833 56.8178 12.951 57.7158 14.5493 59.3141C16.1475 60.9125 17.0454 63.0802 17.0454 65.3406V116.477C17.0284 118.726 16.123 120.877 14.5265 122.462C12.93 124.046 10.772 124.935 8.5227 124.935C6.27345 124.935 4.11539 124.046 2.51892 122.462C0.922452 120.877 0.0170245 118.726 0 116.477L0 65.3406C0 63.0801 0.897951 60.9123 2.49631 59.3139C4.09468 57.7156 6.26252 56.8176 8.52295 56.8176V56.8176Z" fill="#7000FF"/>
<path d="M8.52294 107.955H59.6592C61.9084 107.972 64.0596 108.877 65.6441 110.474C67.2285 112.07 68.1176 114.228 68.1176 116.478C68.1176 118.727 67.2285 120.885 65.6441 122.481C64.0596 124.078 61.9084 124.983 59.6592 125H8.52294C6.27375 124.983 4.12248 124.078 2.53805 122.481C0.953618 120.885 0.0644989 118.727 0.0644989 116.478C0.0644989 114.228 0.953618 112.07 2.53805 110.474C4.12248 108.877 6.27375 107.972 8.52294 107.955V107.955Z" fill="#9B4CFF"/>
<path d="M34.3762 22.6081L102.676 90.9078C103.477 91.6971 104.114 92.6371 104.551 93.6737C104.987 94.7103 105.214 95.823 105.218 96.9477C105.222 98.0723 105.004 99.1867 104.575 100.227C104.147 101.266 103.517 102.211 102.722 103.007C101.926 103.802 100.982 104.432 99.9417 104.86C98.9019 105.289 97.7875 105.507 96.6628 105.503C95.5381 105.499 94.4254 105.272 93.3888 104.835C92.3522 104.399 91.4122 103.762 90.623 102.961L22.3233 34.6611C20.7449 33.0586 19.864 30.8972 19.8725 28.648C19.881 26.3987 20.7783 24.244 22.3688 22.6536C23.9592 21.0631 26.1139 20.1658 28.3631 20.1573C30.6124 20.1488 32.7738 21.0298 34.3762 22.6081Z" fill="#FF6275"/>
</svg>
