<svg width="35" height="35" viewBox="0 0 35 35" fill="none" xmlns="http://www.w3.org/2000/svg">
<g clip-path="url(#clip0)">
<path d="M32.614 0C33.2469 3.62587e-05 33.8539 0.251479 34.3014 0.699016C34.7489 1.14655 35.0003 1.75353 35.0003 2.38643V16.7046C34.9955 17.3343 34.742 17.9367 34.295 18.3803C33.848 18.824 33.2437 19.0729 32.614 19.0729C31.9842 19.0729 31.3799 18.824 30.9329 18.3803C30.4859 17.9367 30.2324 17.3343 30.2276 16.7046V2.38643C30.2276 1.75351 30.479 1.14651 30.9266 0.698968C31.3741 0.251426 31.9811 0 32.614 0V0Z" fill="white"/>
<path d="M18.2955 0H32.6137C33.2435 0.00476687 33.8458 0.258287 34.2895 0.705298C34.7331 1.15231 34.9821 1.75657 34.9821 2.38636C34.9821 3.01615 34.7331 3.62041 34.2895 4.06742C33.8458 4.51443 33.2435 4.76795 32.6137 4.77272H18.2955C17.6658 4.76795 17.0634 4.51443 16.6198 4.06742C16.1761 3.62041 15.9272 3.01615 15.9272 2.38636C15.9272 1.75657 16.1761 1.15231 16.6198 0.705298C17.0634 0.258287 17.6658 0.00476687 18.2955 0V0Z" fill="white"/>
<path d="M2.38643 15.9089C3.01932 15.909 3.62628 16.1604 4.0738 16.608C4.52131 17.0555 4.77272 17.6625 4.77272 18.2954V32.6135C4.76795 33.2433 4.51443 33.8456 4.06742 34.2893C3.62041 34.7329 3.01615 34.9819 2.38636 34.9819C1.75657 34.9819 1.15231 34.7329 0.705298 34.2893C0.258287 33.8456 0.00476687 33.2433 0 32.6135L0 18.2954C0 17.6624 0.251426 17.0554 0.698968 16.6079C1.14651 16.1604 1.75351 15.9089 2.38643 15.9089V15.9089Z" fill="white"/>
<path d="M2.38615 30.2273H16.7043C17.3341 30.2321 17.9364 30.4856 18.3801 30.9326C18.8237 31.3796 19.0727 31.9839 19.0727 32.6137C19.0727 33.2434 18.8237 33.8477 18.3801 34.2947C17.9364 34.7417 17.3341 34.9952 16.7043 35H2.38615C1.75638 34.9952 1.15403 34.7417 0.710386 34.2947C0.266745 33.8477 0.0177917 33.2434 0.0177917 32.6137C0.0177917 31.9839 0.266745 31.3796 0.710386 30.9326C1.15403 30.4856 1.75638 30.2321 2.38615 30.2273V30.2273Z" fill="white"/>
<path d="M9.62532 6.33013L28.7492 25.454C28.9736 25.675 29.152 25.9382 29.2742 26.2285C29.3963 26.5187 29.4598 26.8303 29.461 27.1452C29.4622 27.4601 29.4011 27.7721 29.2811 28.0633C29.1611 28.3545 28.9847 28.619 28.7621 28.8417C28.5394 29.0644 28.2748 29.2408 27.9837 29.3607C27.6925 29.4807 27.3805 29.5418 27.0656 29.5406C26.7507 29.5394 26.4391 29.4759 26.1489 29.3538C25.8586 29.2316 25.5954 29.0532 25.3744 28.8289L6.2505 9.70495C5.80856 9.25626 5.56189 8.65107 5.56427 8.02128C5.56666 7.39149 5.8179 6.78818 6.26323 6.34285C6.70855 5.89752 7.31187 5.64629 7.94165 5.6439C8.57144 5.64152 9.17663 5.88818 9.62532 6.33013Z" fill="white"/>
</g>
<defs>
<clipPath id="clip0">
<rect width="35" height="35" fill="white"/>
</clipPath>
</defs>
</svg>
