<svg width="25" height="25" viewBox="0 0 25 25" fill="none" xmlns="http://www.w3.org/2000/svg">
<path d="M25 2.67857V22.3214C25 23.8002 23.8002 25 22.3214 25H17.5614V15.1116H20.9431L21.4286 11.3393H17.5614V8.92857C17.5614 7.83482 17.8627 7.09263 19.4308 7.09263H21.4286V3.7221C21.0826 3.67746 19.8996 3.57143 18.5156 3.57143C15.6362 3.57143 13.6607 5.32924 13.6607 8.56027V11.3449H10.2679V15.1172H13.6663V25H2.67857C1.19978 25 0 23.8002 0 22.3214V2.67857C0 1.19978 1.19978 0 2.67857 0H22.3214C23.8002 0 25 1.19978 25 2.67857Z" fill="white"/>
</svg>
