<svg width="24" height="25" viewBox="0 0 24 25" fill="none" xmlns="http://www.w3.org/2000/svg">
<path d="M22.2857 0H1.70893C0.766071 0 0 0.809152 0 1.80246V23.1975C0 24.1908 0.766071 25 1.70893 25H22.2857C23.2286 25 24 24.1908 24 23.1975V1.80246C24 0.809152 23.2286 0 22.2857 0ZM7.25357 21.4286H3.69643V9.49777H7.25893V21.4286H7.25357ZM5.475 7.8683C4.33393 7.8683 3.4125 6.9029 3.4125 5.71987C3.4125 4.53683 4.33393 3.57143 5.475 3.57143C6.61071 3.57143 7.5375 4.53683 7.5375 5.71987C7.5375 6.90848 6.61607 7.8683 5.475 7.8683ZM20.5875 21.4286H17.0304V15.625C17.0304 14.2411 17.0036 12.4609 15.1821 12.4609C13.3286 12.4609 13.0446 13.9676 13.0446 15.5246V21.4286H9.4875V9.49777H12.9V11.1272H12.9482C13.425 10.1897 14.5875 9.20201 16.3179 9.20201C19.9179 9.20201 20.5875 11.6741 20.5875 14.8884V21.4286Z" fill="white"/>
</svg>
